<svg width="220" height="103" viewBox="0 0 220 103" fill="none" xmlns="http://www.w3.org/2000/svg">
<rect x="30.5" y="32.5" width="155" height="35" rx="7.5" fill="white"/>
<rect x="30.5" y="32.5" width="155" height="35" rx="7.5" stroke="#E6E6E6"/>
<path d="M43.7 47.26H49.56V48.46H43.7V47.26ZM43.76 41.92H49.48V43.12H43.76V41.92ZM43.7 49.94H49.56V51.14H43.7V49.94ZM42.76 44.54H50.22V45.78H42.76V44.54ZM44.36 52.64H49.56V58.48H44.36V57.22H48.24V53.88H44.36V52.64ZM43.68 52.64H44.98V59.4H43.68V52.64ZM50.66 42.56H60.72V43.72H50.66V42.56ZM51.18 44.92H60.42V46.02H51.18V44.92ZM50.16 47.32H61.16V48.48H50.16V47.32ZM54.92 41.2H56.34V48.3H54.92V41.2ZM51.66 49.66H59.36V50.8H53.08V59.58H51.66V49.66ZM58.52 49.66H59.94V58.02C59.94 58.76 59.78 59.12 59.28 59.34C58.74 59.54 57.9 59.54 56.66 59.54C56.6 59.18 56.4 58.66 56.22 58.3C57.12 58.34 57.94 58.32 58.2 58.32C58.46 58.3 58.52 58.24 58.52 58V49.66ZM52.3 52.24H59.24V53.32H52.3V52.24ZM52.3 54.76H59.24V55.84H52.3V54.76ZM66.78 49.1V56.18H65.36V50.5H62.9V49.1H66.78ZM66.78 55.58C67.72 57.08 69.5 57.76 71.88 57.86C74.14 57.96 78.84 57.9 81.3 57.74C81.12 58.06 80.88 58.74 80.82 59.16C78.54 59.26 74.18 59.3 71.9 59.22C69.24 59.12 67.42 58.4 66.16 56.82C65.3 57.68 64.4 58.54 63.44 59.44L62.66 58.02C63.52 57.36 64.58 56.46 65.5 55.58H66.78ZM63 42.44L64.16 41.68C65.34 42.64 66.68 44.02 67.24 45.02L65.98 45.88C65.46 44.88 64.16 43.44 63 42.44ZM68.26 49.66H80.4V50.82H68.26V49.66ZM67.62 52.74H81.02V53.92H67.62V52.74ZM71.22 48.22H72.66V53.32H71.22V48.22ZM75.94 48.22H77.36V53.32H75.94V48.22ZM68.76 44.34H72.28V43.04H68V42H73.6V45.4H68.76V44.34ZM68.34 44.34H69.62V46.42C69.62 46.8 69.72 46.88 70.36 46.88C70.64 46.88 72.16 46.88 72.54 46.88C73.02 46.88 73.12 46.76 73.18 45.88C73.42 46.08 73.92 46.24 74.28 46.3C74.14 47.6 73.76 47.94 72.74 47.94C72.42 47.94 70.52 47.94 70.22 47.94C68.74 47.94 68.34 47.64 68.34 46.44V44.34ZM75.36 44.34H78.82V43.04H74.56V42H80.12V45.4H75.36V44.34ZM74.92 44.34H76.2V46.42C76.2 46.8 76.32 46.88 77 46.88C77.32 46.88 78.96 46.88 79.36 46.88C79.86 46.88 79.96 46.76 80.02 45.82C80.28 46 80.78 46.16 81.14 46.24C81 47.6 80.62 47.94 79.54 47.94C79.22 47.94 77.18 47.94 76.86 47.94C75.34 47.94 74.92 47.64 74.92 46.42V44.34ZM75.58 54.82L76.66 54.16C78.12 54.86 79.76 55.84 80.72 56.58L79.24 57.24C78.44 56.5 76.96 55.54 75.58 54.82ZM71.92 54.12L73.24 54.58C72.22 55.56 70.6 56.54 69.26 57.18C69.04 56.92 68.48 56.44 68.16 56.24C69.52 55.7 71.02 54.94 71.92 54.12ZM97.32 43.1V45.22H99.36V43.1H97.32ZM94.12 43.1V45.22H96.12V43.1H94.12ZM91.02 43.1V45.22H92.92V43.1H91.02ZM89.78 42.02H100.62V46.3H89.78V42.02ZM90 47.54H100.22V48.68H90V47.54ZM89 50.1H101.22V51.3H89V50.1ZM89.2 53.2H100.94V54.38H89.2V53.2ZM89.6 55.82H100.5V56.98H89.6V55.82ZM94.32 46.02H95.76V50.58H94.32V46.02ZM94.32 53.72H95.76V59.76H94.32V53.72ZM91.5 51.48L92.74 51.2C93.06 51.76 93.42 52.54 93.54 53.06L92.24 53.4C92.12 52.9 91.82 52.08 91.5 51.48ZM97.48 51L98.88 51.38C98.48 52.12 98.04 52.88 97.7 53.4L96.56 53.08C96.88 52.48 97.28 51.58 97.48 51ZM82.54 51.58C84.1 51.14 86.44 50.42 88.72 49.68L88.92 51.06C86.84 51.78 84.64 52.5 82.94 53.04L82.54 51.58ZM82.82 45.24H88.9V46.64H82.82V45.24ZM85.34 41.22H86.74V57.86C86.74 58.7 86.54 59.1 86.04 59.34C85.58 59.58 84.8 59.62 83.54 59.62C83.48 59.26 83.3 58.64 83.1 58.22C83.98 58.24 84.74 58.24 84.98 58.22C85.22 58.22 85.34 58.16 85.34 57.86V41.22Z" fill="black"/>
<path d="M156 47L162 53L168 47" stroke="black" stroke-width="2" stroke-linecap="round" stroke-linejoin="round"/>
<circle cx="140.832" cy="46.8317" r="11" transform="rotate(-17.765 140.832 46.8317)" fill="#262E49" fill-opacity="0.4"/>
<circle cx="140.832" cy="46.8317" r="6.05397" transform="rotate(-17.765 140.832 46.8317)" fill="#262E49" fill-opacity="0.4"/>
<g filter="url(#filter0_d_66_6703)">
<path d="M139.335 70.6772C138.794 69.9818 138.118 68.5717 136.939 66.814C136.263 65.8482 134.602 64.0132 134.1 63.0667C133.738 62.4915 133.633 61.7912 133.81 61.1351C134.113 59.8877 135.297 59.0602 136.572 59.2035C137.559 59.4017 138.466 59.8853 139.18 60.5943C139.679 61.064 140.137 61.5744 140.551 62.1202C140.86 62.5065 140.938 62.6611 141.285 63.1053C141.633 63.5496 141.865 63.9939 141.691 63.3371C141.556 62.3713 141.324 60.7488 140.996 59.3001C140.745 58.1991 140.687 58.0253 140.455 57.1947C140.223 56.3641 140.088 55.6687 139.837 54.7222C139.607 53.7923 139.427 52.851 139.296 51.9021C139.052 50.6885 139.23 49.4281 139.798 48.3287C140.473 47.6939 141.463 47.5263 142.309 47.9037C143.16 48.5321 143.795 49.4097 144.125 50.4148C144.631 51.6517 144.969 52.9511 145.129 54.278C145.438 56.2096 146.037 59.0297 146.056 59.6092C146.056 58.8945 145.921 57.3878 146.056 56.7118C146.19 56.007 146.68 55.4221 147.351 55.1665C147.926 54.99 148.534 54.9503 149.128 55.0506C149.727 55.1758 150.257 55.5203 150.615 56.0164C151.063 57.1433 151.311 58.3393 151.349 59.5512C151.401 58.49 151.582 57.4391 151.89 56.422C152.213 55.9672 152.684 55.6393 153.223 55.4949C153.861 55.3781 154.516 55.3781 155.154 55.4949C155.678 55.6699 156.136 56 156.468 56.4413C156.877 57.4658 157.124 58.5474 157.202 59.6478C157.202 59.9182 157.337 58.8945 157.762 58.2184C157.983 57.5628 158.537 57.0748 159.215 56.9383C159.893 56.8017 160.592 57.0374 161.05 57.5564C161.507 58.0754 161.653 58.799 161.432 59.4546C161.432 60.7102 161.432 60.6522 161.432 61.5021C161.432 62.352 161.432 63.1053 161.432 63.82C161.362 64.9504 161.207 66.0738 160.968 67.181C160.632 68.1605 160.164 69.0898 159.578 69.9432C158.64 70.9862 157.865 72.1649 157.279 73.4394C157.134 74.0725 157.069 74.7215 157.086 75.371C157.084 75.971 157.162 76.5686 157.318 77.148C156.528 77.2315 155.732 77.2315 154.942 77.148C154.188 77.0321 153.261 75.5255 153.01 75.0619C152.886 74.813 152.632 74.6557 152.353 74.6557C152.075 74.6557 151.821 74.813 151.697 75.0619C151.272 75.7959 150.325 77.1287 149.669 77.206C148.374 77.3605 145.709 77.206 143.603 77.206C143.603 77.206 143.951 75.2744 143.159 74.579C142.367 73.8836 141.556 73.0724 140.957 72.5315L139.335 70.6772Z" fill="white"/>
<path fill-rule="evenodd" clip-rule="evenodd" d="M162.155 63.865C162.156 62.7287 162.156 62.7287 162.156 61.5021V59.5638C162.403 58.6961 162.193 57.7586 161.593 57.0775C160.965 56.3643 160.004 56.0406 159.072 56.2282C158.437 56.356 157.881 56.708 157.496 57.2043C157.394 56.8544 157.275 56.5106 157.14 56.1727C156.627 55.4474 156.047 55.0295 155.384 54.8079C154.56 54.6498 153.817 54.6498 153.092 54.7823C152.367 54.9745 151.774 55.373 151.356 55.9248C151.334 55.8661 151.311 55.8075 151.288 55.749C150.739 54.9499 150.052 54.5037 149.276 54.3416C148.544 54.2173 147.821 54.2644 147.138 54.474C146.699 54.6405 146.322 54.8985 146.025 55.2217C145.954 54.8222 145.895 54.4766 145.845 54.1635C145.68 52.7998 145.326 51.4374 144.795 50.1404C144.436 49.0409 143.711 48.0387 142.739 47.321C141.491 46.7459 140.189 46.9662 139.302 47.801L139.155 47.9959C138.511 49.2416 138.31 50.6696 138.586 52.0446C138.713 52.975 138.898 53.9413 139.133 54.8958C139.243 55.3078 139.243 55.3098 139.474 56.2777C139.489 56.3397 139.496 56.3708 139.504 56.4019C139.511 56.433 139.519 56.4642 139.534 56.5266C139.613 56.8504 139.681 57.1175 139.757 57.3894C139.887 57.8514 139.937 58.0303 139.98 58.1908L140.006 58.2868C140.086 58.587 140.164 58.9105 140.289 59.4612C140.405 59.9691 140.506 60.4796 140.603 61.0339C140.313 60.6984 140.003 60.3744 139.677 60.067C138.875 59.2713 137.841 58.7195 136.715 58.4934C135.015 58.2997 133.496 59.3623 133.106 60.964C132.881 61.7974 133.017 62.7062 133.487 63.4526C133.71 63.8768 134.142 64.4596 134.909 65.4109L135.029 65.5587C135.92 66.6587 136.08 66.8564 136.228 67.0626C136.265 67.1132 136.3 67.1643 136.346 67.2294C136.625 67.6466 137.116 68.4551 137.588 69.2347C138.117 70.1063 138.623 70.9419 138.789 71.1542L140.412 73.0085C140.624 73.2046 141.187 73.7376 141.574 74.1033C141.764 74.2837 141.912 74.4234 141.953 74.462C142.14 74.6366 142.312 74.7942 142.477 74.9421C142.528 74.9878 142.554 75.0105 142.579 75.0332C142.605 75.0558 142.63 75.0784 142.681 75.1233C142.797 75.2246 142.893 75.4781 142.934 75.8485C142.968 76.1627 142.959 76.5133 142.921 76.8496C142.909 76.9605 142.897 77.0401 142.89 77.0776C142.81 77.5219 143.152 77.9303 143.603 77.9303C144.123 77.9303 144.66 77.9388 145.513 77.9578L145.807 77.9645C148.119 78.017 148.985 78.017 149.754 77.9252C150.634 77.8218 151.569 76.7288 152.362 75.3854C153.037 76.6319 153.904 77.7212 154.832 77.8639C155.706 77.9572 156.553 77.9572 157.394 77.8683C157.837 77.8215 158.133 77.39 158.017 76.96C157.878 76.4426 157.808 75.909 157.81 75.3733C157.794 74.7634 157.853 74.1752 157.985 73.6014C158.492 72.5336 159.227 71.4162 160.116 70.4275C160.798 69.446 161.296 68.4578 161.653 67.4161C161.922 66.1908 162.082 65.0315 162.155 63.865ZM142.68 73.1553C142.303 72.7988 141.644 72.176 141.443 71.994L139.897 70.2196C139.784 70.0662 139.416 69.4573 138.989 68.7501C138.481 67.9092 137.889 66.9294 137.541 66.4107C137.38 66.1801 137.181 65.9202 136.91 65.5802C136.804 65.4481 136.729 65.3547 136.54 65.1215L136.155 64.6469L136.037 64.5013C135.332 63.6283 134.929 63.0844 134.74 62.7272C134.459 62.2769 134.385 61.785 134.509 61.3241C134.731 60.4132 135.578 59.8208 136.492 59.9233C137.277 60.0839 138.056 60.4994 138.67 61.1084C139.153 61.5637 139.585 62.0442 139.974 62.558C140.095 62.7095 140.171 62.8113 140.291 62.9788C140.497 63.2673 140.555 63.3475 140.715 63.5518C140.726 63.5663 140.757 63.608 140.798 63.6629C140.909 63.8141 141.095 64.0659 141.157 64.131C141.232 64.2271 141.232 64.2271 141.618 64.385C142.444 64.0804 142.449 64.0736 142.473 63.6853C142.482 63.5327 142.456 63.3962 142.391 63.1518C142.171 61.5378 141.975 60.3435 141.702 59.14C141.573 58.5733 141.491 58.2345 141.406 57.9157L141.379 57.8132C141.334 57.645 141.281 57.4582 141.153 57C141.082 56.7458 141.017 56.4938 140.942 56.1847C140.927 56.1245 140.92 56.0942 140.913 56.064C140.905 56.0334 140.898 56.0029 140.883 55.9415C140.649 54.9578 140.648 54.9535 140.537 54.5365C140.317 53.6434 140.141 52.7269 140.014 51.8032C139.804 50.7523 139.937 49.7042 140.383 48.7792C140.84 48.4088 141.471 48.3228 142.014 48.5652C142.609 49.0256 143.154 49.7785 143.437 50.6408C143.936 51.8661 144.258 53.1024 144.41 54.3649C144.494 54.8918 144.595 55.4662 144.731 56.1983L144.791 56.5226C145.321 59.366 145.324 59.3863 145.333 59.6333C145.364 60.5826 146.781 60.559 146.781 59.6092C146.781 59.3999 146.777 59.2877 146.75 58.6599C146.74 58.4122 146.736 58.3067 146.731 58.1621C146.71 57.5207 146.721 57.0845 146.767 56.8538C146.855 56.3892 147.173 56.0093 147.609 55.8433C148.031 55.7156 148.525 55.6833 149.007 55.7648C149.402 55.8479 149.775 56.0906 150.028 56.4402C150.358 57.3327 150.59 58.446 150.625 59.574C150.654 60.5014 152.027 60.5132 152.073 59.5865C152.119 58.6269 152.279 57.6762 152.547 56.754C152.768 56.482 153.07 56.2858 153.41 56.1945C153.905 56.1064 154.472 56.1064 155.024 56.2074C155.309 56.3103 155.645 56.5526 155.889 56.8766C156.176 57.6648 156.407 58.673 156.479 59.6986C156.475 59.6972 156.471 59.696 156.468 59.6975C156.458 59.7046 156.488 59.7734 156.667 60.1756C157.403 60.3034 157.626 60.3421 157.734 60.2482C157.781 60.2073 157.805 60.1411 157.841 60.0461L157.841 60.046C157.891 59.9442 157.891 59.9441 157.905 59.9009C157.923 59.8481 157.942 59.7776 157.975 59.6499C158.047 59.3767 158.113 59.164 158.199 58.9553C158.255 58.8188 158.315 58.7003 158.375 58.6039C158.587 58.0393 158.933 57.7339 159.358 57.6484C159.782 57.5629 160.22 57.7104 160.506 58.0353C160.793 58.3602 160.884 58.8131 160.746 59.2234L160.708 59.4546V63.82C160.641 64.8692 160.491 65.9568 160.26 67.0286C159.968 67.8633 159.53 68.7336 158.981 69.5328C158.052 70.5561 157.237 71.7961 156.621 73.1369C156.414 73.9699 156.343 74.6797 156.362 75.39C156.36 75.7503 156.387 76.1165 156.441 76.4817C155.966 76.4957 155.491 76.4777 155.018 76.4277C154.783 76.3907 154.065 75.4885 153.647 74.7169C153.412 74.2439 152.906 73.9314 152.354 73.9314C151.801 73.9314 151.296 74.2439 151.049 74.7384C150.569 75.5637 149.802 76.461 149.584 76.4866C148.914 76.5666 148.058 76.5666 145.841 76.5162L145.546 76.5095C145.09 76.4993 144.724 76.4921 144.4 76.4876C144.41 76.2211 144.403 75.953 144.374 75.6908C144.298 74.9948 144.08 74.4232 143.637 74.0347C143.589 73.9927 143.565 73.9715 143.541 73.9503C143.517 73.9288 143.493 73.9072 143.445 73.8638C143.287 73.7227 143.122 73.5713 142.942 73.4027C142.912 73.3749 142.813 73.2819 142.68 73.1553Z" fill="black"/>
<path d="M155.715 71.7316V65.0642C155.715 64.6651 155.39 64.3416 154.99 64.3416C154.59 64.3416 154.266 64.6651 154.266 65.0642V71.7316C154.266 72.1307 154.59 72.4542 154.99 72.4542C155.39 72.4542 155.715 72.1307 155.715 71.7316Z" fill="black"/>
<path d="M151.89 71.7292L151.851 65.0583C151.849 64.6602 151.523 64.3393 151.123 64.3416C150.723 64.3439 150.4 64.6685 150.403 65.0666L150.441 71.7375C150.444 72.1356 150.77 72.4565 151.17 72.4542C151.57 72.4519 151.892 72.1273 151.89 71.7292Z" fill="black"/>
<path d="M146.539 65.0736L146.578 71.7307C146.58 72.1326 146.906 72.4566 147.307 72.4542C147.707 72.4519 148.029 72.1241 148.027 71.7222L147.988 65.0651C147.986 64.6632 147.659 64.3392 147.259 64.3416C146.859 64.3439 146.537 64.6717 146.539 65.0736Z" fill="black"/>
</g>
<defs>
<filter id="filter0_d_66_6703" x="132.2" y="47" width="30.8576" height="32.8" filterUnits="userSpaceOnUse" color-interpolation-filters="sRGB">
<feFlood flood-opacity="0" result="BackgroundImageFix"/>
<feColorMatrix in="SourceAlpha" type="matrix" values="0 0 0 0 0 0 0 0 0 0 0 0 0 0 0 0 0 0 127 0" result="hardAlpha"/>
<feOffset dy="1"/>
<feGaussianBlur stdDeviation="0.4"/>
<feColorMatrix type="matrix" values="0 0 0 0 0 0 0 0 0 0 0 0 0 0 0 0 0 0 0.5 0"/>
<feBlend mode="normal" in2="BackgroundImageFix" result="effect1_dropShadow_66_6703"/>
<feBlend mode="normal" in="SourceGraphic" in2="effect1_dropShadow_66_6703" result="shape"/>
</filter>
</defs>
</svg>
