<svg width="220" height="103" viewBox="0 0 220 103" fill="none" xmlns="http://www.w3.org/2000/svg">
<path d="M53.9679 69C52.1944 69 51.4976 67.7365 52.3844 66.2835L72.9068 30.7165C73.7935 29.2003 75.8838 28 77.6573 28H153.476C155.25 28 157.91 28.6949 159.367 29.5794L161.014 30.527C162.534 31.4114 163.357 33.433 162.851 35.1387L161.077 41.077C160.57 42.7196 158.797 44.5516 157.15 45.057L83.2313 68.0524C81.5844 68.5578 78.7974 69 77.0239 69H53.9679Z" fill="#84CB98"/>
<circle cx="141.832" cy="44.8317" r="11" transform="rotate(-17.765 141.832 44.8317)" fill="#262E49" fill-opacity="0.4"/>
<circle cx="141.832" cy="44.8317" r="6.05397" transform="rotate(-17.765 141.832 44.8317)" fill="#262E49" fill-opacity="0.4"/>
<g filter="url(#filter0_d_66_6724)">
<path d="M140.335 68.6772C139.794 67.9818 139.118 66.5717 137.939 64.814C137.263 63.8482 135.602 62.0132 135.1 61.0667C134.738 60.4915 134.633 59.7912 134.81 59.1351C135.113 57.8877 136.297 57.0602 137.572 57.2035C138.559 57.4017 139.466 57.8853 140.18 58.5943C140.679 59.064 141.137 59.5744 141.551 60.1202C141.86 60.5065 141.938 60.6611 142.285 61.1053C142.633 61.5496 142.865 61.9939 142.691 61.3371C142.556 60.3713 142.324 58.7488 141.996 57.3001C141.745 56.1991 141.687 56.0253 141.455 55.1947C141.223 54.3641 141.088 53.6687 140.837 52.7222C140.607 51.7923 140.427 50.851 140.296 49.9021C140.052 48.6885 140.23 47.4281 140.798 46.3287C141.473 45.6939 142.463 45.5263 143.309 45.9037C144.16 46.5321 144.795 47.4097 145.125 48.4148C145.631 49.6517 145.969 50.9511 146.129 52.278C146.438 54.2096 147.037 57.0297 147.056 57.6092C147.056 56.8945 146.921 55.3878 147.056 54.7118C147.19 54.007 147.68 53.4221 148.351 53.1665C148.926 52.99 149.534 52.9503 150.128 53.0506C150.727 53.1758 151.257 53.5203 151.615 54.0164C152.063 55.1433 152.311 56.3393 152.349 57.5512C152.401 56.49 152.582 55.4391 152.89 54.422C153.213 53.9672 153.684 53.6393 154.223 53.4949C154.861 53.3781 155.516 53.3781 156.154 53.4949C156.678 53.6699 157.136 54 157.468 54.4413C157.877 55.4658 158.124 56.5474 158.202 57.6478C158.202 57.9182 158.337 56.8945 158.762 56.2184C158.983 55.5628 159.537 55.0748 160.215 54.9383C160.893 54.8017 161.592 55.0374 162.05 55.5564C162.507 56.0754 162.653 56.799 162.432 57.4546C162.432 58.7102 162.432 58.6522 162.432 59.5021C162.432 60.352 162.432 61.1053 162.432 61.82C162.362 62.9504 162.207 64.0738 161.968 65.181C161.632 66.1605 161.164 67.0898 160.578 67.9432C159.64 68.9862 158.865 70.1649 158.279 71.4394C158.134 72.0725 158.069 72.7215 158.086 73.371C158.084 73.971 158.162 74.5686 158.318 75.148C157.528 75.2315 156.732 75.2315 155.942 75.148C155.188 75.0321 154.261 73.5255 154.01 73.0619C153.886 72.813 153.632 72.6557 153.353 72.6557C153.075 72.6557 152.821 72.813 152.697 73.0619C152.272 73.7959 151.325 75.1287 150.669 75.206C149.374 75.3605 146.709 75.206 144.603 75.206C144.603 75.206 144.951 73.2744 144.159 72.579C143.367 71.8836 142.556 71.0724 141.957 70.5315L140.335 68.6772Z" fill="white"/>
<path fill-rule="evenodd" clip-rule="evenodd" d="M163.155 61.865C163.156 60.7287 163.156 60.7287 163.156 59.5021V57.5638C163.403 56.6961 163.193 55.7586 162.593 55.0775C161.965 54.3643 161.004 54.0406 160.072 54.2282C159.437 54.356 158.881 54.708 158.496 55.2043C158.394 54.8544 158.275 54.5106 158.14 54.1727C157.627 53.4474 157.047 53.0295 156.384 52.8079C155.56 52.6498 154.817 52.6498 154.092 52.7823C153.367 52.9745 152.774 53.373 152.356 53.9248C152.334 53.8661 152.311 53.8075 152.288 53.749C151.739 52.9499 151.052 52.5037 150.276 52.3416C149.544 52.2173 148.821 52.2644 148.138 52.474C147.699 52.6405 147.322 52.8985 147.025 53.2217C146.954 52.8222 146.895 52.4766 146.845 52.1635C146.68 50.7998 146.326 49.4374 145.795 48.1404C145.436 47.0409 144.711 46.0387 143.739 45.321C142.491 44.7459 141.189 44.9662 140.302 45.801L140.155 45.9959C139.511 47.2416 139.31 48.6696 139.586 50.0446C139.713 50.975 139.898 51.9413 140.133 52.8958C140.243 53.3078 140.243 53.3098 140.474 54.2777C140.489 54.3397 140.496 54.3708 140.504 54.4019C140.511 54.433 140.519 54.4642 140.534 54.5266C140.613 54.8504 140.681 55.1175 140.757 55.3894C140.887 55.8514 140.937 56.0303 140.98 56.1908L141.006 56.2868C141.086 56.587 141.164 56.9105 141.289 57.4612C141.405 57.9691 141.506 58.4796 141.603 59.0339C141.313 58.6984 141.003 58.3744 140.677 58.067C139.875 57.2713 138.841 56.7195 137.715 56.4934C136.015 56.2997 134.496 57.3623 134.106 58.964C133.881 59.7974 134.017 60.7062 134.487 61.4526C134.71 61.8768 135.142 62.4596 135.909 63.4109L136.029 63.5587C136.92 64.6587 137.08 64.8564 137.228 65.0626C137.265 65.1132 137.3 65.1643 137.346 65.2294C137.625 65.6466 138.116 66.4551 138.588 67.2347C139.117 68.1063 139.623 68.9419 139.789 69.1542L141.412 71.0085C141.624 71.2046 142.187 71.7376 142.574 72.1033C142.764 72.2837 142.912 72.4234 142.953 72.462C143.14 72.6366 143.312 72.7942 143.477 72.9421C143.528 72.9878 143.554 73.0105 143.579 73.0332C143.605 73.0558 143.63 73.0784 143.681 73.1233C143.797 73.2246 143.893 73.4781 143.934 73.8485C143.968 74.1627 143.959 74.5133 143.921 74.8496C143.909 74.9605 143.897 75.0401 143.89 75.0776C143.81 75.5219 144.152 75.9303 144.603 75.9303C145.123 75.9303 145.66 75.9388 146.513 75.9578L146.807 75.9645C149.119 76.017 149.985 76.017 150.754 75.9252C151.634 75.8218 152.569 74.7288 153.362 73.3854C154.037 74.6319 154.904 75.7212 155.832 75.8639C156.706 75.9572 157.553 75.9572 158.394 75.8683C158.837 75.8215 159.133 75.39 159.017 74.96C158.878 74.4426 158.808 73.909 158.81 73.3733C158.794 72.7634 158.853 72.1752 158.985 71.6014C159.492 70.5336 160.227 69.4162 161.116 68.4275C161.798 67.446 162.296 66.4578 162.653 65.4161C162.922 64.1908 163.082 63.0315 163.155 61.865ZM143.68 71.1553C143.303 70.7988 142.644 70.176 142.443 69.994L140.897 68.2196C140.784 68.0662 140.416 67.4573 139.989 66.7501C139.481 65.9092 138.889 64.9294 138.541 64.4107C138.38 64.1801 138.181 63.9202 137.91 63.5802C137.804 63.4481 137.729 63.3547 137.54 63.1215L137.155 62.6469L137.037 62.5013C136.332 61.6283 135.929 61.0844 135.74 60.7272C135.459 60.2769 135.385 59.785 135.509 59.3241C135.731 58.4132 136.578 57.8208 137.492 57.9233C138.277 58.0839 139.056 58.4994 139.67 59.1084C140.153 59.5637 140.585 60.0442 140.974 60.558C141.095 60.7095 141.171 60.8113 141.291 60.9788C141.497 61.2673 141.555 61.3475 141.715 61.5518C141.726 61.5663 141.757 61.608 141.798 61.6629C141.909 61.8141 142.095 62.0659 142.157 62.131C142.232 62.2271 142.232 62.2271 142.618 62.385C143.444 62.0804 143.449 62.0736 143.473 61.6853C143.482 61.5327 143.456 61.3962 143.391 61.1518C143.171 59.5378 142.975 58.3435 142.702 57.14C142.573 56.5733 142.491 56.2345 142.406 55.9157L142.379 55.8132C142.334 55.645 142.281 55.4582 142.153 55C142.082 54.7458 142.017 54.4938 141.942 54.1847C141.927 54.1245 141.92 54.0942 141.913 54.064C141.905 54.0334 141.898 54.0029 141.883 53.9415C141.649 52.9578 141.648 52.9535 141.537 52.5365C141.317 51.6434 141.141 50.7269 141.014 49.8032C140.804 48.7523 140.937 47.7042 141.383 46.7792C141.84 46.4088 142.471 46.3228 143.014 46.5652C143.609 47.0256 144.154 47.7785 144.437 48.6408C144.936 49.8661 145.258 51.1024 145.41 52.3649C145.494 52.8918 145.595 53.4662 145.731 54.1983L145.791 54.5226C146.321 57.366 146.324 57.3863 146.333 57.6333C146.364 58.5826 147.781 58.559 147.781 57.6092C147.781 57.3999 147.777 57.2877 147.75 56.6599C147.74 56.4122 147.736 56.3067 147.731 56.1621C147.71 55.5207 147.721 55.0845 147.767 54.8538C147.855 54.3892 148.173 54.0093 148.609 53.8433C149.031 53.7156 149.525 53.6833 150.007 53.7648C150.402 53.8479 150.775 54.0906 151.028 54.4402C151.358 55.3327 151.59 56.446 151.625 57.574C151.654 58.5014 153.027 58.5132 153.073 57.5865C153.119 56.6269 153.279 55.6762 153.547 54.754C153.768 54.482 154.07 54.2858 154.41 54.1945C154.905 54.1064 155.472 54.1064 156.024 54.2074C156.309 54.3103 156.645 54.5526 156.889 54.8766C157.176 55.6648 157.407 56.673 157.479 57.6986C157.475 57.6972 157.471 57.696 157.468 57.6975C157.458 57.7046 157.488 57.7734 157.667 58.1756C158.403 58.3034 158.626 58.3421 158.734 58.2482C158.781 58.2073 158.805 58.1411 158.841 58.0461L158.841 58.046C158.891 57.9442 158.891 57.9441 158.905 57.9009C158.923 57.8481 158.942 57.7776 158.975 57.6499C159.047 57.3767 159.113 57.164 159.199 56.9553C159.255 56.8188 159.315 56.7003 159.375 56.6039C159.587 56.0393 159.933 55.7339 160.358 55.6484C160.782 55.5629 161.22 55.7104 161.506 56.0353C161.793 56.3602 161.884 56.8131 161.746 57.2234L161.708 57.4546V61.82C161.641 62.8692 161.491 63.9568 161.26 65.0286C160.968 65.8633 160.53 66.7336 159.981 67.5328C159.052 68.5561 158.237 69.7961 157.621 71.1369C157.414 71.9699 157.343 72.6797 157.362 73.39C157.36 73.7503 157.387 74.1165 157.441 74.4817C156.966 74.4957 156.491 74.4777 156.018 74.4277C155.783 74.3907 155.065 73.4885 154.647 72.7169C154.412 72.2439 153.906 71.9314 153.354 71.9314C152.801 71.9314 152.296 72.2439 152.049 72.7384C151.569 73.5637 150.802 74.461 150.584 74.4866C149.914 74.5666 149.058 74.5666 146.841 74.5162L146.546 74.5095C146.09 74.4993 145.724 74.4921 145.4 74.4876C145.41 74.2211 145.403 73.953 145.374 73.6908C145.298 72.9948 145.08 72.4232 144.637 72.0347C144.589 71.9927 144.565 71.9715 144.541 71.9503C144.517 71.9288 144.493 71.9072 144.445 71.8638C144.287 71.7227 144.122 71.5713 143.942 71.4027C143.912 71.3749 143.813 71.2819 143.68 71.1553Z" fill="black"/>
<path d="M156.715 69.7316V63.0642C156.715 62.6651 156.39 62.3416 155.99 62.3416C155.59 62.3416 155.266 62.6651 155.266 63.0642V69.7316C155.266 70.1307 155.59 70.4542 155.99 70.4542C156.39 70.4542 156.715 70.1307 156.715 69.7316Z" fill="black"/>
<path d="M152.89 69.7292L152.851 63.0583C152.849 62.6602 152.523 62.3393 152.123 62.3416C151.723 62.3439 151.4 62.6685 151.403 63.0666L151.441 69.7375C151.444 70.1356 151.77 70.4565 152.17 70.4542C152.57 70.4519 152.892 70.1273 152.89 69.7292Z" fill="black"/>
<path d="M147.539 63.0736L147.578 69.7307C147.58 70.1326 147.906 70.4566 148.307 70.4542C148.707 70.4519 149.029 70.1241 149.027 69.7222L148.988 63.0651C148.986 62.6632 148.659 62.3392 148.259 62.3416C147.859 62.3439 147.537 62.6717 147.539 63.0736Z" fill="black"/>
</g>
<defs>
<filter id="filter0_d_66_6724" x="133.2" y="45" width="30.8576" height="32.8" filterUnits="userSpaceOnUse" color-interpolation-filters="sRGB">
<feFlood flood-opacity="0" result="BackgroundImageFix"/>
<feColorMatrix in="SourceAlpha" type="matrix" values="0 0 0 0 0 0 0 0 0 0 0 0 0 0 0 0 0 0 127 0" result="hardAlpha"/>
<feOffset dy="1"/>
<feGaussianBlur stdDeviation="0.4"/>
<feColorMatrix type="matrix" values="0 0 0 0 0 0 0 0 0 0 0 0 0 0 0 0 0 0 0.5 0"/>
<feBlend mode="normal" in2="BackgroundImageFix" result="effect1_dropShadow_66_6724"/>
<feBlend mode="normal" in="SourceGraphic" in2="effect1_dropShadow_66_6724" result="shape"/>
</filter>
</defs>
</svg>
